<svg width="60" height="61" viewBox="0 0 60 61" fill="none" xmlns="http://www.w3.org/2000/svg">
<path d="M30.2882 42.9507C37.652 42.9507 43.6215 36.9812 43.6215 29.6174C43.6215 22.2536 37.652 16.2841 30.2882 16.2841C22.9244 16.2841 16.9549 22.2536 16.9549 29.6174C16.9549 31.6326 17.402 33.5435 18.2024 35.2561L17.1778 41.5752C17.0683 42.2507 17.6544 42.8341 18.3294 42.7216L24.5946 41.6774C26.3213 42.494 28.2514 42.9507 30.2882 42.9507Z" stroke="#242424" stroke-linecap="square" stroke-linejoin="round"/>
<path d="M35.6215 33.7655V33.1839C35.6215 32.4615 35.1817 31.8118 34.5109 31.5435L33.8888 31.2947C33.1934 31.0165 32.4009 31.3179 32.0659 31.9878C32.0659 31.9878 30.5845 31.6915 29.3993 30.5063C28.2141 29.3211 27.9178 27.8396 27.9178 27.8396C28.5877 27.5047 28.889 26.7121 28.6109 26.0167L28.362 25.3947C28.0937 24.7239 27.4441 24.2841 26.7216 24.2841H26.14C25.4855 24.2841 24.9548 24.8147 24.9548 25.4692C24.9548 30.7057 29.1998 34.9507 34.4363 34.9507C35.0909 34.9507 35.6215 34.4201 35.6215 33.7655Z" fill="#242424"/>
<circle cx="30" cy="30.342" r="29.5" stroke="#242424"/>
</svg>
