<svg width="61" height="61" viewBox="0 0 61 61" fill="none" xmlns="http://www.w3.org/2000/svg">
<path d="M30.6762 15.5181C33.4 15.5181 35.8291 16.0873 37.9634 17.2256C40.1181 18.3436 41.795 19.9291 42.9943 21.9821C44.1936 24.0148 44.7933 26.3422 44.7933 28.9644C44.7933 31.546 44.3461 33.5685 43.4517 35.0321C42.5573 36.4753 41.3174 37.1969 39.7319 37.1969C38.7358 37.1969 37.9227 36.9021 37.2926 36.3127C36.6828 35.7232 36.3474 34.9101 36.2864 33.8734C35.6766 34.9304 34.8432 35.7537 33.7862 36.3432C32.7292 36.9123 31.5299 37.1969 30.1883 37.1969C28.7654 37.1969 27.4747 36.8615 26.316 36.1907C25.1777 35.4996 24.2731 34.5544 23.6024 33.3551C22.9519 32.1558 22.6267 30.804 22.6267 29.2998C22.6267 27.7956 22.9519 26.454 23.6024 25.2751C24.2731 24.0758 25.1777 23.1407 26.316 22.4699C27.4747 21.7992 28.7654 21.4638 30.1883 21.4638C31.4892 21.4638 32.658 21.7483 33.6947 22.3175C34.7517 22.8663 35.5953 23.6489 36.2254 24.6653V21.5857H38.2073V33.1416C38.2073 33.9547 38.3801 34.5442 38.7257 34.9101C39.0712 35.276 39.5286 35.4589 40.0977 35.4589C41.0531 35.4589 41.8052 34.8898 42.354 33.7515C42.9232 32.6131 43.2078 31.0276 43.2078 28.9949C43.2078 26.637 42.6793 24.5636 41.6223 22.7749C40.5653 20.9657 39.0814 19.5632 37.1706 18.5672C35.2802 17.5711 33.1154 17.0731 30.6762 17.0731C28.2166 17.0731 26.0314 17.5915 24.1207 18.6281C22.2303 19.6445 20.7566 21.0877 19.6996 22.9578C18.6426 24.8076 18.1141 26.9216 18.1141 29.2998C18.1141 31.6781 18.6324 33.8023 19.6691 35.6724C20.7261 37.5424 22.1896 38.9958 24.0597 40.0325C25.9501 41.0692 28.115 41.5875 30.5542 41.5875C31.5096 41.5875 32.5056 41.4757 33.5423 41.2521C34.5993 41.0285 35.5546 40.6931 36.4084 40.2459L36.9267 41.74C36.0527 42.1872 35.0363 42.5327 33.8777 42.7767C32.7394 43.0206 31.6315 43.1425 30.5542 43.1425C27.7897 43.1425 25.3403 42.5531 23.206 41.3741C21.0716 40.1951 19.4048 38.5588 18.2055 36.4651C17.0266 34.3511 16.4371 31.9627 16.4371 29.2998C16.4371 26.6167 17.0367 24.2384 18.236 22.165C19.4353 20.0714 21.1123 18.4452 23.267 17.2866C25.4419 16.1076 27.9117 15.5181 30.6762 15.5181ZM30.4627 35.4284C31.5604 35.4284 32.5462 35.1743 33.4203 34.6662C34.2944 34.158 34.9855 33.4465 35.4937 32.5318C36.0018 31.5968 36.2559 30.5195 36.2559 29.2998C36.2559 28.1005 36.0018 27.0435 35.4937 26.1288C34.9855 25.1938 34.2944 24.4823 33.4203 23.9945C32.5462 23.4863 31.5604 23.2322 30.4627 23.2322C29.3447 23.2322 28.3386 23.4863 27.4442 23.9945C26.5701 24.5027 25.879 25.2141 25.3708 26.1288C24.883 27.0435 24.639 28.1005 24.639 29.2998C24.639 30.4991 24.883 31.5663 25.3708 32.5013C25.879 33.4161 26.5701 34.1377 27.4442 34.6662C28.3386 35.1743 29.3447 35.4284 30.4627 35.4284Z" fill="white"/>
<circle cx="30.7119" cy="30.8701" r="29.5" stroke="white"/>
</svg>
