<svg width="57" height="56" viewBox="0 0 57 56" fill="none" xmlns="http://www.w3.org/2000/svg">
<rect x="1" y="0.5" width="55" height="55" rx="27.5" stroke="white"/>
<rect x="1" y="0.5" width="55" height="55" rx="27.5" stroke="white"/>
<path d="M23.5 22V22.5C23.6672 22.5 23.8233 22.4164 23.916 22.2774L23.5 22ZM24.9063 19.8906L24.4902 19.6132L24.9063 19.8906ZM32.0937 19.8906L32.5098 19.6132L32.0937 19.8906ZM33.5 22L33.084 22.2774C33.1767 22.4164 33.3328 22.5 33.5 22.5V22ZM31 29.5C31 30.8807 29.8807 32 28.5 32V33C30.433 33 32 31.433 32 29.5H31ZM28.5 32C27.1193 32 26 30.8807 26 29.5H25C25 31.433 26.567 33 28.5 33V32ZM26 29.5C26 28.1193 27.1193 27 28.5 27V26C26.567 26 25 27.567 25 29.5H26ZM28.5 27C29.8807 27 31 28.1193 31 29.5H32C32 27.567 30.433 26 28.5 26V27ZM23.916 22.2774L25.3223 20.1679L24.4902 19.6132L23.084 21.7226L23.916 22.2774ZM26.5704 19.5H30.4296V18.5H26.5704V19.5ZM31.6777 20.1679L33.084 22.2774L33.916 21.7226L32.5098 19.6132L31.6777 20.1679ZM30.4296 19.5C30.9312 19.5 31.3995 19.7507 31.6777 20.1679L32.5098 19.6132C32.0461 18.9178 31.2655 18.5 30.4296 18.5V19.5ZM25.3223 20.1679C25.6005 19.7507 26.0688 19.5 26.5704 19.5V18.5C25.7345 18.5 24.9539 18.9178 24.4902 19.6132L25.3223 20.1679ZM38 26V33H39V26H38ZM34.5 36.5H22.5V37.5H34.5V36.5ZM19 33V26H18V33H19ZM22.5 36.5C20.567 36.5 19 34.933 19 33H18C18 35.4853 20.0147 37.5 22.5 37.5V36.5ZM38 33C38 34.933 36.433 36.5 34.5 36.5V37.5C36.9853 37.5 39 35.4853 39 33H38ZM34.5 22.5C36.433 22.5 38 24.067 38 26H39C39 23.5147 36.9853 21.5 34.5 21.5V22.5ZM22.5 21.5C20.0147 21.5 18 23.5147 18 26H19C19 24.067 20.567 22.5 22.5 22.5V21.5ZM22.5 22.5H23.5V21.5H22.5V22.5ZM34.5 21.5H33.5V22.5H34.5V21.5Z" fill="white"/>
<circle cx="28.5" cy="22" r="1" fill="white"/>
</svg>
