<svg width="61" height="61" viewBox="0 0 61 61" fill="none" xmlns="http://www.w3.org/2000/svg">
<path d="M31.0004 43.4789C38.3642 43.4789 44.3337 37.5094 44.3337 30.1456C44.3337 22.7818 38.3642 16.8123 31.0004 16.8123C23.6366 16.8123 17.667 22.7818 17.667 30.1456C17.667 32.1608 18.1141 34.0717 18.9145 35.7843L17.89 42.1034C17.7805 42.7789 18.3665 43.3623 19.0415 43.2498L25.3068 42.2056C27.0334 43.0222 28.9636 43.4789 31.0004 43.4789Z" stroke="white" stroke-linecap="square" stroke-linejoin="round"/>
<path d="M36.3337 34.2937V33.7121C36.3337 32.9897 35.8938 32.34 35.223 32.0717L34.601 31.8229C33.9056 31.5447 33.1131 31.8461 32.7781 32.516C32.7781 32.516 31.2966 32.2197 30.1114 31.0345C28.9263 29.8493 28.63 28.3678 28.63 28.3678C29.2999 28.0329 29.6012 27.2403 29.323 26.5449L29.0742 25.9229C28.8059 25.2521 28.1562 24.8123 27.4338 24.8123H26.8522C26.1976 24.8123 25.667 25.3429 25.667 25.9974C25.667 31.2339 29.912 35.4789 35.1485 35.4789C35.803 35.4789 36.3337 34.9483 36.3337 34.2937Z" fill="white"/>
<circle cx="30.7119" cy="30.8701" r="29.5" stroke="white"/>
</svg>
