<svg width="60" height="61" viewBox="0 0 60 61" fill="none" xmlns="http://www.w3.org/2000/svg">
<path d="M29.9647 14.9901C32.6886 14.9901 35.1176 15.5593 37.252 16.6976C39.4066 17.8156 41.0836 19.4011 42.2829 21.4541C43.4822 23.4868 44.0819 25.8143 44.0819 28.4365C44.0819 31.018 43.6347 33.0406 42.7403 34.5041C41.8459 35.9473 40.6059 36.6689 39.0204 36.6689C38.0244 36.6689 37.2113 36.3742 36.5812 35.7847C35.9714 35.1952 35.636 34.3821 35.575 33.3455C34.9652 34.4025 34.1318 35.2257 33.0748 35.8152C32.0178 36.3844 30.8185 36.6689 29.4769 36.6689C28.054 36.6689 26.7632 36.3335 25.6046 35.6627C24.4663 34.9716 23.5617 34.0264 22.8909 32.8271C22.2405 31.6278 21.9152 30.2761 21.9152 28.7719C21.9152 27.2677 22.2405 25.9261 22.8909 24.7471C23.5617 23.5478 24.4663 22.6128 25.6046 21.942C26.7632 21.2712 28.054 20.9358 29.4769 20.9358C30.7778 20.9358 31.9466 21.2204 32.9833 21.7895C34.0403 22.3384 34.8839 23.121 35.514 24.1373V21.0578H37.4959V32.6137C37.4959 33.4268 37.6687 34.0163 38.0142 34.3821C38.3598 34.748 38.8172 34.931 39.3863 34.931C40.3417 34.931 41.0938 34.3618 41.6426 33.2235C42.2118 32.0852 42.4964 30.4997 42.4964 28.467C42.4964 26.109 41.9678 24.0357 40.9108 22.2469C39.8538 20.4378 38.37 19.0352 36.4592 18.0392C34.5688 17.0432 32.404 16.5452 29.9647 16.5452C27.5052 16.5452 25.32 17.0635 23.4093 18.1002C21.5189 19.1165 20.0451 20.5598 18.9881 22.4298C17.9311 24.2796 17.4026 26.3936 17.4026 28.7719C17.4026 31.1501 17.921 33.2743 18.9576 35.1444C20.0147 37.0145 21.4782 38.4679 23.3483 39.5046C25.2387 40.5412 27.4035 41.0596 29.8428 41.0596C30.7981 41.0596 31.7942 40.9478 32.8308 40.7242C33.8879 40.5006 34.8432 40.1652 35.697 39.718L36.2153 41.212C35.3412 41.6592 34.3249 42.0048 33.1662 42.2487C32.0279 42.4926 30.9201 42.6146 29.8428 42.6146C27.0783 42.6146 24.6289 42.0251 22.4945 40.8461C20.3602 39.6672 18.6934 38.0308 17.4941 35.9372C16.3151 33.8231 15.7256 31.4347 15.7256 28.7719C15.7256 26.0887 16.3253 23.7104 17.5246 21.6371C18.7239 19.5434 20.4009 17.9172 22.5555 16.7586C24.7305 15.5796 27.2003 14.9901 29.9647 14.9901ZM29.7513 34.9005C30.849 34.9005 31.8348 34.6464 32.7089 34.1382C33.5829 33.63 34.2741 32.9186 34.7822 32.0039C35.2904 31.0688 35.5445 29.9915 35.5445 28.7719C35.5445 27.5726 35.2904 26.5156 34.7822 25.6009C34.2741 24.6658 33.5829 23.9544 32.7089 23.4665C31.8348 22.9583 30.849 22.7043 29.7513 22.7043C28.6333 22.7043 27.6271 22.9583 26.7327 23.4665C25.8587 23.9747 25.1676 24.6861 24.6594 25.6009C24.1715 26.5156 23.9276 27.5726 23.9276 28.7719C23.9276 29.9712 24.1715 31.0383 24.6594 31.9734C25.1676 32.8881 25.8587 33.6097 26.7327 34.1382C27.6271 34.6464 28.6333 34.9005 29.7513 34.9005Z" fill="#242424"/>
<circle cx="30" cy="30.342" r="29.5" stroke="#242424"/>
</svg>
