<svg width="360" height="326" viewBox="0 0 360 326" fill="none" xmlns="http://www.w3.org/2000/svg">
<rect width="1100" height="18.104" transform="translate(-397 351.163) rotate(-18.5702)" fill="white"/>
<path d="M-6.06804 230.057L-1.95609 232.214L-3.28699 232.661L-7.07786 230.684L-6.09666 233.605L-7.16878 233.965L-9.23881 227.803L-8.1667 227.443L-7.25175 230.167L-5.5049 226.549L-4.12471 226.085L-6.06804 230.057ZM1.86311 225.253L1.50706 224.193L2.57917 223.833L4.64921 229.995L3.5771 230.355L3.22105 229.295C2.96851 230.285 2.32877 230.952 1.30184 231.297C0.431009 231.59 -0.409154 231.525 -1.21864 231.102C-2.03911 230.674 -2.60114 230.008 -2.90475 229.104C-3.20559 228.208 -3.15831 227.342 -2.76289 226.505C-2.36747 225.669 -1.73845 225.105 -0.875834 224.815C0.151094 224.47 1.06407 224.616 1.86311 225.253ZM1.08963 230.217C1.71401 230.007 2.1653 229.622 2.44353 229.062C2.71623 228.486 2.74908 227.89 2.54208 227.274C2.33232 226.65 1.94756 226.198 1.38781 225.92C0.8253 225.634 0.231859 225.595 -0.392513 225.805C-1.00867 226.012 -1.45448 226.399 -1.72995 226.967C-2.00817 227.527 -2.0424 228.119 -1.83264 228.744C-1.62563 229.36 -1.2395 229.815 -0.674227 230.11C-0.114477 230.388 0.473476 230.424 1.08963 230.217ZM7.55088 221.984C8.4135 221.695 9.25505 221.764 10.0755 222.192C10.896 222.621 11.4566 223.282 11.7575 224.178C12.0611 225.082 12.0152 225.952 11.6198 226.789C11.2298 227.615 10.5994 228.174 9.72856 228.466C8.70985 228.809 7.79687 228.663 6.98962 228.029L8.17368 231.553L7.10157 231.913L4.20352 223.287L5.27563 222.927L5.63168 223.987C5.89244 222.994 6.53217 222.327 7.55088 221.984ZM9.24524 227.477C9.8614 227.27 10.3086 226.886 10.5868 226.327C10.8595 225.75 10.8924 225.154 10.6854 224.538C10.4756 223.914 10.0908 223.462 9.5311 223.184C8.96859 222.898 8.37925 222.858 7.7631 223.065C7.13872 223.275 6.6888 223.664 6.41334 224.232C6.13512 224.791 6.10089 225.383 6.31065 226.008C6.51765 226.624 6.90379 227.079 7.46906 227.374C8.02881 227.652 8.62087 227.687 9.24524 227.477ZM11.071 220.98L16.3453 219.208L16.693 220.243L14.5981 220.947L16.3204 226.073L15.2483 226.434L13.526 221.307L11.4187 222.015L11.071 220.98ZM24.0537 222.611C23.6391 223.446 22.9758 224.016 22.0639 224.322C21.152 224.629 20.279 224.574 19.4449 224.16C18.6107 223.745 18.0405 223.082 17.7341 222.17C17.4277 221.258 17.4819 220.385 17.8965 219.551C18.3111 218.717 18.9743 218.147 19.8863 217.84C20.7982 217.534 21.6712 217.588 22.5053 218.003C23.3504 218.423 23.9248 219.085 24.2284 219.988C24.532 220.892 24.4738 221.766 24.0537 222.611ZM21.712 223.275C22.3282 223.068 22.7754 222.684 23.0536 222.125C23.3318 221.565 23.3661 220.973 23.1563 220.348C22.9465 219.724 22.5618 219.273 22.002 218.994C21.4423 218.716 20.8543 218.681 20.2382 218.888C19.6302 219.092 19.1871 219.474 18.9089 220.034C18.6307 220.593 18.5965 221.185 18.8062 221.81C19.016 222.434 19.4007 222.886 19.9605 223.164C20.5202 223.442 21.1041 223.479 21.712 223.275ZM29.1962 218.168L28.2067 215.223L29.2788 214.863L31.3488 221.025L30.2767 221.385L29.5315 219.167C29.1021 219.549 28.5835 219.842 27.9755 220.046C27.1786 220.314 26.5031 220.33 25.9489 220.096C25.3948 219.861 24.9962 219.383 24.7534 218.66L24.0661 216.614L25.1382 216.254L25.8048 218.238C25.9566 218.69 26.1861 218.978 26.4934 219.104C26.8061 219.218 27.213 219.191 27.7141 219.023C28.281 218.832 28.775 218.548 29.1962 218.168ZM34.0784 216.569L38.1904 218.726L36.8595 219.173L33.0686 217.197L34.0498 220.117L32.9777 220.477L30.9077 214.316L31.9798 213.956L32.8947 216.679L34.6416 213.061L36.0218 212.598L34.0784 216.569ZM39.6303 216.199L41.5907 210.727L42.4533 210.437L44.5233 216.598L43.4635 216.954L42.0104 212.629L40.05 218.101L39.1874 218.391L37.1174 212.23L38.1772 211.873L39.6303 216.199ZM54.6462 211.566L54.4244 206.415L55.5458 206.038L55.7057 212.842L54.609 213.21L51.6353 209.135L51.7253 214.179L50.6286 214.547L46.6485 209.027L47.7699 208.651L50.6986 212.878L50.5795 207.707L51.6147 207.359L54.6462 211.566ZM56.8145 204.364C56.6092 204.433 56.4132 204.421 56.2266 204.328C56.04 204.236 55.9136 204.091 55.8474 203.894C55.7811 203.696 55.7944 203.505 55.8871 203.318C55.9771 203.123 56.1248 202.991 56.3302 202.922C56.5273 202.856 56.7206 202.873 56.9099 202.974C57.0965 203.067 57.2229 203.212 57.2892 203.409C57.3554 203.606 57.3422 203.798 57.2494 203.985C57.1567 204.171 57.0117 204.298 56.8145 204.364ZM59.7912 211.469L58.7191 211.829L56.6491 205.668L57.7212 205.307L59.7912 211.469ZM62.4989 210.559L61.4268 210.92L58.4046 201.924L59.4767 201.563L62.4989 210.559ZM67.5223 203.194L66.3383 199.67L67.4104 199.309L70.3084 207.936L69.2363 208.296L68.8803 207.236C68.6277 208.226 67.988 208.894 66.9611 209.239C66.0902 209.531 65.2501 209.466 64.4406 209.043C63.6201 208.615 63.0581 207.949 62.7545 207.045C62.4536 206.15 62.5009 205.283 62.8963 204.447C63.2918 203.61 63.9208 203.046 64.7834 202.757C65.8103 202.412 66.7233 202.557 67.5223 203.194ZM66.7489 208.158C67.3732 207.948 67.8245 207.563 68.1028 207.004C68.3755 206.427 68.4083 205.831 68.2013 205.215C67.9916 204.591 67.6068 204.139 67.047 203.861C66.4845 203.575 65.8911 203.536 65.2667 203.746C64.6506 203.953 64.2048 204.341 63.9293 204.909C63.6511 205.468 63.6168 206.06 63.8266 206.685C64.0336 207.301 64.4197 207.756 64.985 208.051C65.5448 208.329 66.1327 208.365 66.7489 208.158ZM73.2101 199.926C74.0727 199.636 74.9143 199.705 75.7347 200.133C76.5552 200.562 77.1159 201.224 77.4167 202.119C77.7203 203.023 77.6744 203.893 77.279 204.73C76.889 205.556 76.2586 206.115 75.3878 206.408C74.3691 206.75 73.4561 206.604 72.6489 205.97L73.0049 207.03L71.9328 207.39L69.0347 198.764L70.1069 198.404L71.2909 201.928C71.5517 200.935 72.1914 200.268 73.2101 199.926ZM74.9045 205.418C75.5206 205.211 75.9678 204.828 76.246 204.268C76.5188 203.692 76.5516 203.095 76.3446 202.479C76.1348 201.855 75.7501 201.404 75.1903 201.125C74.6278 200.839 74.0385 200.799 73.4223 201.006C72.798 201.216 72.348 201.605 72.0726 202.173C71.7944 202.733 71.7601 203.325 71.9699 203.949C72.1769 204.565 72.563 205.021 73.1283 205.315C73.688 205.593 74.2801 205.628 74.9045 205.418ZM84.7767 200.195L79.6133 201.93C79.9023 202.436 80.2964 202.779 80.7956 202.959C81.2921 203.13 81.8361 203.117 82.4276 202.918C83.2409 202.645 83.7317 202.146 83.8999 201.422L84.9857 201.633C84.6896 202.766 83.9419 203.534 82.7424 203.937C81.773 204.262 80.874 204.226 80.0453 203.828C79.2276 203.408 78.6628 202.734 78.351 201.805C78.0363 200.869 78.0767 199.996 78.4722 199.186C78.8649 198.369 79.5378 197.8 80.4908 197.48C81.3945 197.176 82.2374 197.249 83.0196 197.7C83.8044 198.131 84.3486 198.798 84.6522 199.702C84.7047 199.858 84.7462 200.022 84.7767 200.195ZM80.8303 198.49C80.2634 198.68 79.8407 199.001 79.5622 199.451C79.292 199.898 79.2041 200.412 79.2987 200.993L83.4146 199.61C83.1338 199.074 82.7602 198.71 82.2938 198.519C81.8275 198.329 81.3396 198.319 80.8303 198.49ZM85.9176 195.835L86.2654 196.87C86.3619 195.987 86.8744 195.39 87.8027 195.078L88.1795 196.199C87.6454 196.351 87.2405 196.643 86.9647 197.074C86.6889 197.505 86.6642 198.057 86.8905 198.731L87.9876 201.996L86.9155 202.356L84.8455 196.195L85.9176 195.835ZM89.9611 194.476L90.3089 195.511C90.4055 194.629 90.9179 194.031 91.8463 193.719L92.223 194.841C91.6889 194.993 91.284 195.284 91.0082 195.715C90.7324 196.146 90.7077 196.698 90.934 197.372L92.0312 200.638L90.959 200.998L88.889 194.836L89.9611 194.476ZM93.098 192.174C92.8926 192.243 92.6966 192.231 92.5101 192.139C92.3235 192.046 92.1971 191.901 92.1308 191.704C92.0646 191.507 92.0778 191.315 92.1706 191.128C92.2606 190.933 92.4082 190.802 92.6136 190.733C92.8108 190.666 93.004 190.684 93.1934 190.785C93.38 190.877 93.5064 191.022 93.5726 191.219C93.6389 191.417 93.6256 191.609 93.5329 191.795C93.4401 191.982 93.2952 192.108 93.098 192.174ZM96.0747 199.279L95.0026 199.639L92.9325 193.478L94.0047 193.118L96.0747 199.279ZM102.756 194.155L97.5926 195.889C97.8816 196.396 98.2756 196.739 98.7749 196.918C99.2713 197.09 99.8153 197.076 100.407 196.878C101.22 196.604 101.711 196.106 101.879 195.382L102.965 195.593C102.669 196.726 101.921 197.493 100.722 197.896C99.7523 198.222 98.8532 198.186 98.0246 197.788C97.2069 197.368 96.6421 196.693 96.3302 195.765C96.0156 194.828 96.056 193.955 96.4515 193.146C96.8442 192.328 97.5171 191.759 98.4701 191.439C99.3738 191.136 100.217 191.209 100.999 191.659C101.784 192.091 102.328 192.758 102.631 193.662C102.684 193.818 102.725 193.982 102.756 194.155ZM98.8095 192.45C98.2427 192.64 97.82 192.96 97.5415 193.411C97.2713 193.858 97.1834 194.372 97.2779 194.953L101.394 193.57C101.113 193.034 100.739 192.67 100.273 192.479C99.8068 192.288 99.3189 192.279 98.8095 192.45ZM104.067 191.589C104.2 191.983 104.71 192.154 105.598 192.103C105.924 192.066 106.202 192.051 106.432 192.056C106.668 192.05 106.932 192.075 107.226 192.132C107.527 192.186 107.782 192.306 107.991 192.492C108.2 192.678 108.357 192.927 108.462 193.239C108.649 193.798 108.582 194.318 108.26 194.802C107.938 195.285 107.444 195.638 106.778 195.862C106.187 196.06 105.63 196.106 105.109 195.997C104.594 195.878 104.171 195.627 103.842 195.244L104.588 194.403C104.786 194.666 105.049 194.838 105.378 194.919C105.707 195.001 106.061 194.978 106.439 194.851C106.808 194.727 107.081 194.558 107.256 194.344C107.431 194.129 107.471 193.883 107.377 193.603C107.236 193.184 106.728 193.017 105.851 193.101C105.555 193.118 105.33 193.13 105.177 193.136C105.023 193.142 104.805 193.132 104.523 193.108C104.249 193.082 104.031 193.032 103.869 192.958C103.704 192.876 103.536 192.755 103.362 192.593C103.195 192.421 103.07 192.212 102.987 191.965C102.808 191.431 102.865 190.923 103.16 190.44C103.463 189.954 103.927 189.606 104.551 189.396C105.052 189.228 105.535 189.194 105.998 189.294C106.467 189.383 106.868 189.596 107.2 189.933L106.47 190.74C106.072 190.289 105.544 190.174 104.887 190.394C104.574 190.499 104.336 190.662 104.172 190.881C104.017 191.098 103.982 191.334 104.067 191.589Z" fill="#242424"/>
<circle cx="115.398" cy="188.568" r="1.5" transform="rotate(-18.5702 115.398 188.568)" fill="#242424"/>
<path d="M125.695 185.79L129.807 187.947L128.476 188.394L124.685 186.417L125.666 189.338L124.594 189.698L122.524 183.536L123.596 183.176L124.511 185.9L126.258 182.282L127.638 181.818L125.695 185.79ZM133.626 180.986L133.27 179.926L134.342 179.566L136.412 185.728L135.34 186.088L134.984 185.028C134.731 186.018 134.091 186.685 133.065 187.03C132.194 187.323 131.354 187.258 130.544 186.835C129.724 186.407 129.162 185.741 128.858 184.837C128.557 183.941 128.604 183.075 129 182.238C129.395 181.402 130.024 180.838 130.887 180.548C131.914 180.203 132.827 180.349 133.626 180.986ZM132.852 185.95C133.477 185.74 133.928 185.355 134.206 184.796C134.479 184.219 134.512 183.623 134.305 183.007C134.095 182.383 133.71 181.931 133.151 181.653C132.588 181.367 131.995 181.328 131.37 181.538C130.754 181.745 130.308 182.133 130.033 182.701C129.755 183.26 129.72 183.852 129.93 184.477C130.137 185.093 130.523 185.548 131.088 185.843C131.648 186.121 132.236 186.157 132.852 185.95ZM139.314 177.717C140.176 177.428 141.018 177.497 141.838 177.925C142.659 178.354 143.219 179.016 143.52 179.911C143.824 180.815 143.778 181.685 143.382 182.522C142.992 183.348 142.362 183.907 141.491 184.199C140.473 184.542 139.56 184.396 138.752 183.762L139.936 187.286L138.864 187.647L135.966 179.02L137.038 178.66L137.394 179.72C137.655 178.727 138.295 178.06 139.314 177.717ZM141.008 183.21C141.624 183.003 142.071 182.619 142.35 182.06C142.622 181.484 142.655 180.887 142.448 180.271C142.238 179.647 141.854 179.196 141.294 178.917C140.731 178.631 140.142 178.591 139.526 178.798C138.901 179.008 138.451 179.397 138.176 179.965C137.898 180.524 137.864 181.117 138.073 181.741C138.28 182.357 138.666 182.812 139.232 183.107C139.792 183.385 140.384 183.42 141.008 183.21ZM142.834 176.713L148.108 174.941L148.456 175.976L146.361 176.68L148.083 181.807L147.011 182.167L145.289 177.04L143.181 177.748L142.834 176.713ZM155.816 178.344C155.402 179.179 154.739 179.749 153.827 180.055C152.915 180.362 152.042 180.307 151.208 179.893C150.373 179.478 149.803 178.815 149.497 177.903C149.19 176.991 149.245 176.118 149.659 175.284C150.074 174.45 150.737 173.88 151.649 173.573C152.561 173.267 153.434 173.321 154.268 173.736C155.113 174.156 155.687 174.818 155.991 175.721C156.295 176.625 156.236 177.499 155.816 178.344ZM153.475 179.008C154.091 178.801 154.538 178.417 154.816 177.858C155.095 177.298 155.129 176.706 154.919 176.081C154.709 175.457 154.324 175.006 153.765 174.728C153.205 174.449 152.617 174.414 152.001 174.621C151.393 174.825 150.95 175.207 150.672 175.767C150.393 176.326 150.359 176.919 150.569 177.543C150.779 178.167 151.163 178.619 151.723 178.897C152.283 179.175 152.867 179.212 153.475 179.008ZM160.959 173.901L159.969 170.956L161.041 170.596L163.112 176.758L162.039 177.118L161.294 174.9C160.865 175.282 160.346 175.575 159.738 175.779C158.941 176.047 158.266 176.063 157.712 175.829C157.157 175.595 156.759 175.116 156.516 174.393L155.829 172.347L156.901 171.987L157.567 173.971C157.719 174.423 157.949 174.712 158.256 174.837C158.569 174.951 158.976 174.924 159.477 174.756C160.044 174.565 160.538 174.281 160.959 173.901ZM165.841 172.302L169.953 174.459L168.622 174.906L164.831 172.93L165.813 175.85L164.74 176.21L162.67 170.049L163.742 169.689L164.657 172.412L166.404 168.794L167.784 168.331L165.841 172.302ZM171.393 171.932L173.353 166.46L174.216 166.17L176.286 172.332L175.226 172.688L173.773 168.362L171.813 173.834L170.95 174.124L168.88 167.963L169.94 167.607L171.393 171.932ZM180.913 163.92L183.538 163.038L185.608 169.2L184.548 169.556L183.803 167.338L182.903 167.64L181.923 170.438L180.617 170.877L181.65 167.992C181.143 168.035 180.688 167.932 180.284 167.683C179.889 167.432 179.614 167.076 179.46 166.616C179.269 166.049 179.312 165.509 179.587 164.996C179.863 164.483 180.305 164.124 180.913 163.92ZM181.952 166.89L183.48 166.377L182.813 164.392L181.285 164.906C180.973 165.011 180.742 165.194 180.592 165.454C180.447 165.704 180.424 165.977 180.524 166.273C180.62 166.56 180.803 166.764 181.072 166.884C181.346 166.993 181.639 166.995 181.952 166.89ZM190.287 163.623L189.426 161.06L190.498 160.7L192.568 166.861L191.496 167.221L190.631 164.646L187.439 165.718L188.305 168.294L187.233 168.654L185.163 162.492L186.235 162.132L187.096 164.695L190.287 163.623ZM197.429 158.371L199.156 163.51L200.006 163.224L200.904 165.898L199.845 166.254L199.29 164.603L194.669 166.156L195.223 167.807L194.164 168.163L193.265 165.489L194.017 165.236C194.229 164.562 194.171 163.736 193.843 162.758L192.882 159.899L197.429 158.371ZM195.237 164.827L198.096 163.866L196.705 159.725L194.277 160.541L194.902 162.402C195.206 163.306 195.318 164.114 195.237 164.827ZM206.31 159.365L201.147 161.099C201.436 161.606 201.83 161.949 202.329 162.128C202.826 162.3 203.37 162.286 203.961 162.088C204.774 161.814 205.265 161.316 205.433 160.592L206.519 160.803C206.223 161.936 205.475 162.703 204.276 163.106C203.307 163.432 202.407 163.396 201.579 162.998C200.761 162.577 200.196 161.903 199.884 160.975C199.57 160.038 199.61 159.165 200.006 158.356C200.398 157.538 201.071 156.969 202.024 156.649C202.928 156.346 203.771 156.419 204.553 156.869C205.338 157.301 205.882 157.968 206.186 158.872C206.238 159.028 206.28 159.192 206.31 159.365ZM202.364 157.66C201.797 157.85 201.374 158.17 201.096 158.621C200.826 159.068 200.738 159.582 200.832 160.163L204.948 158.78C204.667 158.243 204.294 157.88 203.827 157.689C203.361 157.498 202.873 157.489 202.364 157.66ZM209.55 157.618L213.662 159.775L212.331 160.222L208.54 158.245L209.521 161.166L208.449 161.526L206.379 155.364L207.451 155.004L208.366 157.728L210.113 154.11L211.493 153.646L209.55 157.618ZM217.043 158.817C216.115 159.129 215.239 159.08 214.416 158.671C213.59 158.254 213.022 157.585 212.713 156.665C212.404 155.745 212.454 154.873 212.863 154.05C213.27 153.219 213.937 152.647 214.865 152.335C215.473 152.131 216.069 152.095 216.653 152.228C217.235 152.353 217.727 152.622 218.131 153.035L217.405 153.854C217.139 153.578 216.808 153.397 216.413 153.31C216.027 153.22 215.628 153.245 215.217 153.383C214.601 153.59 214.154 153.973 213.876 154.533C213.608 155.098 213.578 155.689 213.785 156.305C213.989 156.913 214.369 157.361 214.923 157.651C215.483 157.929 216.071 157.964 216.687 157.757C217.098 157.619 217.436 157.401 217.701 157.101C217.963 156.794 218.125 156.447 218.187 156.06L219.277 156.284C219.172 156.868 218.921 157.386 218.525 157.839C218.128 158.292 217.634 158.618 217.043 158.817ZM221.171 157.403C220.949 157.478 220.734 157.463 220.525 157.359C220.317 157.256 220.175 157.093 220.1 156.871C220.026 156.649 220.041 156.434 220.144 156.226C220.248 156.017 220.411 155.876 220.632 155.801C220.862 155.724 221.078 155.738 221.278 155.845C221.486 155.948 221.628 156.111 221.702 156.333C221.777 156.555 221.762 156.77 221.659 156.978C221.563 157.184 221.401 157.326 221.171 157.403ZM226.389 148.642L227.535 148.257L229.605 154.418L228.558 154.77L227.055 150.297L226.156 154.11L226.02 154.156L223.001 151.659L224.504 156.132L223.444 156.488L221.374 150.327L222.52 149.942L225.502 152.41L226.389 148.642ZM234.63 147.053L234.274 145.993L235.346 145.633L237.416 151.794L236.344 152.155L235.988 151.095C235.735 152.085 235.095 152.752 234.069 153.097C233.198 153.39 232.358 153.325 231.548 152.902C230.728 152.473 230.166 151.807 229.862 150.904C229.561 150.008 229.608 149.142 230.004 148.305C230.399 147.468 231.028 146.905 231.891 146.615C232.918 146.27 233.831 146.416 234.63 147.053ZM233.856 152.017C234.481 151.807 234.932 151.422 235.21 150.862C235.483 150.286 235.516 149.69 235.309 149.074C235.099 148.449 234.714 147.998 234.155 147.72C233.592 147.433 232.999 147.395 232.374 147.605C231.758 147.812 231.312 148.199 231.037 148.767C230.759 149.327 230.724 149.919 230.934 150.543C231.141 151.16 231.527 151.615 232.092 151.91C232.652 152.188 233.24 152.224 233.856 152.017ZM240.318 143.784C241.18 143.494 242.022 143.564 242.842 143.992C243.663 144.42 244.223 145.082 244.524 145.978C244.828 146.881 244.782 147.752 244.386 148.589C243.997 149.414 243.366 149.974 242.495 150.266C241.477 150.608 240.564 150.463 239.756 149.829L240.94 153.353L239.868 153.713L236.97 145.087L238.042 144.727L238.398 145.787C238.659 144.794 239.299 144.126 240.318 143.784ZM242.012 149.277C242.628 149.07 243.075 148.686 243.354 148.126C243.626 147.55 243.659 146.954 243.452 146.338C243.242 145.714 242.858 145.262 242.298 144.984C241.735 144.698 241.146 144.658 240.53 144.865C239.905 145.075 239.456 145.464 239.18 146.031C238.902 146.591 238.868 147.183 239.077 147.808C239.284 148.424 239.671 148.879 240.236 149.174C240.796 149.452 241.388 149.486 242.012 149.277ZM247.939 144.721L252.051 146.878L250.72 147.325L246.929 145.348L247.911 148.269L246.839 148.629L244.768 142.467L245.841 142.107L246.756 144.83L248.502 141.213L249.883 140.749L247.939 144.721ZM257.528 142.157L252.365 143.892C252.654 144.399 253.048 144.742 253.547 144.921C254.044 145.093 254.588 145.079 255.179 144.88C255.992 144.607 256.483 144.109 256.651 143.385L257.737 143.596C257.441 144.728 256.693 145.496 255.494 145.899C254.525 146.225 253.626 146.189 252.797 145.79C251.979 145.37 251.414 144.696 251.103 143.768C250.788 142.831 250.828 141.958 251.224 141.149C251.617 140.331 252.289 139.762 253.242 139.442C254.146 139.138 254.989 139.212 255.771 139.662C256.556 140.093 257.1 140.761 257.404 141.664C257.456 141.821 257.498 141.985 257.528 142.157ZM253.582 140.453C253.015 140.643 252.592 140.963 252.314 141.413C252.044 141.861 251.956 142.375 252.05 142.956L256.166 141.573C255.885 141.036 255.512 140.673 255.045 140.482C254.579 140.291 254.091 140.281 253.582 140.453ZM256.666 138.47L261.941 136.698L262.288 137.733L260.193 138.437L261.916 143.563L260.844 143.924L259.121 138.797L257.014 139.505L256.666 138.47Z" fill="#242424"/>
<circle cx="270.859" cy="136.339" r="1.5" transform="rotate(-18.5702 270.859 136.339)" fill="#242424"/>
<path d="M281.156 133.561L285.268 135.718L283.937 136.165L280.146 134.189L281.127 137.109L280.055 137.469L277.985 131.308L279.057 130.948L279.972 133.671L281.719 130.053L283.099 129.59L281.156 133.561ZM289.087 128.757L288.731 127.698L289.803 127.337L291.873 133.499L290.801 133.859L290.445 132.799C290.192 133.789 289.552 134.457 288.525 134.802C287.655 135.094 286.814 135.029 286.005 134.606C285.185 134.178 284.622 133.512 284.319 132.608C284.018 131.713 284.065 130.847 284.461 130.01C284.856 129.173 285.485 128.61 286.348 128.32C287.375 127.975 288.288 128.121 289.087 128.757ZM288.313 133.721C288.938 133.511 289.389 133.127 289.667 132.567C289.94 131.991 289.973 131.395 289.766 130.778C289.556 130.154 289.171 129.703 288.611 129.424C288.049 129.138 287.455 129.1 286.831 129.309C286.215 129.516 285.769 129.904 285.494 130.472C285.215 131.032 285.181 131.624 285.391 132.248C285.598 132.864 285.984 133.32 286.549 133.614C287.109 133.893 287.697 133.928 288.313 133.721ZM294.775 125.489C295.637 125.199 296.479 125.268 297.299 125.697C298.12 126.125 298.68 126.787 298.981 127.682C299.285 128.586 299.239 129.456 298.843 130.293C298.453 131.119 297.823 131.678 296.952 131.971C295.933 132.313 295.021 132.167 294.213 131.533L295.397 135.058L294.325 135.418L291.427 126.792L292.499 126.432L292.855 127.491C293.116 126.499 293.756 125.831 294.775 125.489ZM296.469 130.981C297.085 130.774 297.532 130.391 297.81 129.831C298.083 129.255 298.116 128.659 297.909 128.043C297.699 127.418 297.314 126.967 296.755 126.689C296.192 126.402 295.603 126.363 294.987 126.57C294.362 126.779 293.912 127.168 293.637 127.736C293.359 128.296 293.325 128.888 293.534 129.512C293.741 130.128 294.127 130.584 294.693 130.879C295.252 131.157 295.845 131.191 296.469 130.981ZM298.295 124.485L303.569 122.713L303.917 123.748L301.822 124.452L303.544 129.578L302.472 129.938L300.75 124.812L298.642 125.52L298.295 124.485ZM311.277 126.116C310.863 126.95 310.199 127.52 309.288 127.827C308.376 128.133 307.503 128.079 306.668 127.664C305.834 127.25 305.264 126.586 304.958 125.674C304.651 124.763 304.705 123.89 305.12 123.055C305.535 122.221 306.198 121.651 307.11 121.345C308.022 121.038 308.895 121.092 309.729 121.507C310.574 121.927 311.148 122.589 311.452 123.493C311.756 124.396 311.697 125.271 311.277 126.116ZM308.936 126.779C309.552 126.572 309.999 126.189 310.277 125.629C310.555 125.069 310.59 124.477 310.38 123.853C310.17 123.228 309.785 122.777 309.226 122.499C308.666 122.221 308.078 122.185 307.462 122.392C306.854 122.596 306.411 122.978 306.133 123.538C305.854 124.098 305.82 124.69 306.03 125.314C306.24 125.939 306.624 126.39 307.184 126.668C307.744 126.946 308.328 126.983 308.936 126.779ZM316.42 121.673L315.43 118.728L316.502 118.367L318.572 124.529L317.5 124.889L316.755 122.671C316.326 123.053 315.807 123.346 315.199 123.55C314.402 123.818 313.727 123.835 313.173 123.6C312.618 123.366 312.22 122.887 311.977 122.164L311.29 120.119L312.362 119.758L313.028 121.743C313.18 122.194 313.41 122.483 313.717 122.608C314.03 122.723 314.437 122.696 314.938 122.527C315.505 122.337 315.999 122.052 316.42 121.673ZM321.302 120.074L325.414 122.231L324.083 122.678L320.292 120.701L321.273 123.622L320.201 123.982L318.131 117.82L319.203 117.46L320.118 120.183L321.865 116.566L323.245 116.102L321.302 120.074ZM326.854 119.703L328.814 114.231L329.677 113.941L331.747 120.103L330.687 120.459L329.234 116.134L327.274 121.606L326.411 121.896L324.341 115.734L325.401 115.378L326.854 119.703ZM341.399 115.996C340.985 116.83 340.321 117.401 339.409 117.707C338.498 118.013 337.625 117.959 336.79 117.545C335.956 117.13 335.386 116.467 335.08 115.555C334.773 114.643 334.827 113.77 335.242 112.936C335.657 112.102 336.32 111.531 337.232 111.225C338.144 110.919 339.017 110.973 339.851 111.387C340.696 111.807 341.27 112.469 341.574 113.373C341.878 114.277 341.819 115.151 341.399 115.996ZM339.058 116.659C339.674 116.452 340.121 116.069 340.399 115.509C340.677 114.95 340.712 114.357 340.502 113.733C340.292 113.109 339.907 112.657 339.348 112.379C338.788 112.101 338.2 112.065 337.584 112.272C336.976 112.477 336.533 112.859 336.254 113.418C335.976 113.978 335.942 114.57 336.152 115.195C336.362 115.819 336.746 116.27 337.306 116.548C337.866 116.827 338.45 116.864 339.058 116.659ZM346.057 109.234L344.389 114.718L347.667 113.616L348.01 114.639L343.266 116.233L343.026 115.518L344.682 110.039L341.663 111.053L341.319 110.03L345.817 108.519L346.057 109.234ZM353.843 111.816C353.428 112.65 352.765 113.22 351.853 113.526C350.941 113.833 350.068 113.779 349.234 113.364C348.4 112.949 347.829 112.286 347.523 111.374C347.217 110.462 347.271 109.589 347.685 108.755C348.1 107.921 348.763 107.351 349.675 107.044C350.587 106.738 351.46 106.792 352.294 107.207C353.139 107.627 353.714 108.289 354.017 109.192C354.321 110.096 354.263 110.971 353.843 111.816ZM351.501 112.479C352.117 112.272 352.564 111.889 352.843 111.329C353.121 110.769 353.155 110.177 352.945 109.553C352.736 108.928 352.351 108.477 351.791 108.199C351.231 107.921 350.643 107.885 350.027 108.092C349.419 108.296 348.976 108.678 348.698 109.238C348.42 109.798 348.385 110.39 348.595 111.014C348.805 111.638 349.19 112.09 349.75 112.368C350.309 112.646 350.893 112.683 351.501 112.479ZM357.261 104.496C357.984 104.253 358.64 104.289 359.23 104.602C359.818 104.908 360.242 105.451 360.504 106.231L361.775 110.015L360.703 110.375L359.453 106.653C359.287 106.16 359.022 105.82 358.657 105.631C358.292 105.443 357.872 105.429 357.395 105.589C356.845 105.774 356.467 106.093 356.263 106.546C356.055 106.99 356.065 107.549 356.291 108.223L357.388 111.488L356.316 111.849L354.246 105.687L355.318 105.327L355.616 106.214C355.809 105.372 356.357 104.8 357.261 104.496Z" fill="#242424"/>
</svg>
