<svg width="57" height="57" viewBox="0 0 57 57" fill="none" xmlns="http://www.w3.org/2000/svg">
<circle cx="28.2773" cy="28.4602" r="27.5" stroke="#242424"/>
<path d="M18.8164 21.7654H25.8164M25.8164 21.7654C25.8164 22.87 26.7118 23.7654 27.8164 23.7654C28.921 23.7654 29.8164 22.87 29.8164 21.7654M25.8164 21.7654C25.8164 20.6608 26.7118 19.7654 27.8164 19.7654C28.921 19.7654 29.8164 20.6608 29.8164 21.7654M18.8164 28.7654H27.8164M34.8164 28.7654H36.8164M34.8164 28.7654C34.8164 29.87 33.921 30.7654 32.8164 30.7654C31.7118 30.7654 30.8164 29.87 30.8164 28.7654C30.8164 27.6608 31.7118 26.7654 32.8164 26.7654C33.921 26.7654 34.8164 27.6608 34.8164 28.7654ZM29.8164 21.7654H36.8164M27.8164 35.7654H36.8164M18.8164 35.7654H20.8164M20.8164 35.7654C20.8164 36.87 21.7118 37.7654 22.8164 37.7654C23.921 37.7654 24.8164 36.87 24.8164 35.7654C24.8164 34.6608 23.921 33.7654 22.8164 33.7654C21.7118 33.7654 20.8164 34.6608 20.8164 35.7654Z" stroke="#28303F" stroke-linecap="round"/>
</svg>
